<svg width="278" height="192" viewBox="0 0 278 192" fill="none" xmlns="http://www.w3.org/2000/svg">
<circle cx="260.5" cy="17.5" r="17.5" fill="#03D6A5"/>
<path d="M126.5 14.0001C170.071 14.0001 205 48.4646 205 90.5001C205 132.536 170.071 167 126.5 167C82.9289 167 48 132.536 48 90.5001C48 48.4646 82.9289 14.0001 126.5 14.0001Z" fill="white" stroke="#03D6A5" stroke-width="20"/>
<path d="M110.865 76.5684C145.799 57.9278 175.886 45.8136 197.881 40.0947C208.944 37.2183 217.484 36.0879 223.366 36.3209C228.059 36.5068 229.566 37.4543 229.895 37.6952C229.955 37.9454 230.048 38.5372 229.951 39.6156C229.803 41.2649 229.246 43.5877 228.016 46.5824C225.555 52.5742 220.807 60.2855 213.427 69.0433C198.717 86.4987 174.337 107.174 139.862 125.57C105.112 144.112 76.3867 153.893 55.8116 157.389C45.4805 159.145 37.6164 159.244 32.2383 158.336C26.5439 157.374 25.4039 155.643 25.363 155.568C25.1931 155.249 24.4561 153.116 26.5428 147.88C28.5302 142.893 32.6131 136.391 39.3995 128.77C52.9252 113.581 76.1791 95.0766 110.865 76.5684Z" stroke="#03D6A5" stroke-width="17"/>
<ellipse cx="73" cy="103.496" rx="13" ry="12.5" fill="white"/>
<ellipse cx="102" cy="78.4956" rx="13" ry="12.5" fill="white"/>
<ellipse cx="116" cy="72.4956" rx="13" ry="12.5" fill="white"/>
<ellipse cx="129" cy="66.4956" rx="13" ry="12.5" fill="white"/>
<ellipse cx="152" cy="62.4956" rx="13" ry="12.5" fill="white"/>
<ellipse cx="176.502" cy="51.4501" rx="4.5" ry="12.5" transform="rotate(-40.1691 176.502 51.4501)" fill="white"/>
<ellipse cx="172.17" cy="47.6571" rx="4.5" ry="12.5" transform="rotate(-37.4268 172.17 47.6571)" fill="white"/>
<ellipse cx="154.486" cy="51.9651" rx="4.5" ry="12.5" transform="rotate(-32.3171 154.486 51.9651)" fill="white"/>
<ellipse cx="168.841" cy="50.1845" rx="4.5" ry="12.5" transform="rotate(-43.2396 168.841 50.1845)" fill="white"/>
<ellipse cx="160.486" cy="50.9651" rx="4.5" ry="12.5" transform="rotate(-32.3171 160.486 50.9651)" fill="white"/>
<ellipse cx="65.8153" cy="110.151" rx="4.5" ry="12.5" transform="rotate(-15.8647 65.8153 110.151)" fill="white"/>
<ellipse cx="64.7457" cy="107.249" rx="4.5" ry="12.5" transform="rotate(-16.7142 64.7457 107.249)" fill="white"/>
<ellipse cx="64.5845" cy="106.28" rx="4.5" ry="12.5" transform="rotate(-20.4544 64.5845 106.28)" fill="white"/>
<ellipse cx="139" cy="56.4956" rx="13" ry="12.5" fill="white"/>
<ellipse cx="94" cy="90.4956" rx="13" ry="12.5" fill="white"/>
<ellipse cx="81" cy="91.4956" rx="13" ry="12.5" fill="white"/>
<ellipse cx="136" cy="76.4956" rx="13" ry="12.5" fill="white"/>
<ellipse cx="165" cy="65.4956" rx="13" ry="12.5" fill="white"/>
<ellipse cx="86" cy="93.4956" rx="13" ry="12.5" fill="white"/>
</svg>
